<?xml version="1.0" encoding="utf-8"?>
<!-- Generator: Adobe Illustrator 27.5.0, SVG Export Plug-In . SVG Version: 6.00 Build 0)  -->
<svg version="1.1" id="Capa_1" xmlns="http://www.w3.org/2000/svg" xmlns:xlink="http://www.w3.org/1999/xlink" x="0px" y="0px"
	 viewBox="0 0 595.28 595.28" style="enable-background:new 0 0 595.28 595.28;" xml:space="preserve">
<rect x="0" y="-0.001" style="fill:#A5DCF0;" width="595.28" height="595.375"/>
<path style="fill:#E4F2F2;" d="M528.225,78.138c-1.893,0-3.715,0.287-5.437,0.802c0.006-0.267,0.018-0.533,0.018-0.802
	c0-16.714-13.546-30.265-30.263-30.265c-15.286,0-27.917,11.334-29.968,26.054c-2.608-0.912-5.409-1.413-8.328-1.413
	c-13.936,0-25.233,11.296-25.233,25.232c0,12.614,9.257,23.065,21.346,24.935c2.596,10.842,12.321,18.911,23.959,18.911
	c9.47,0,17.677-5.34,21.813-13.169c3.168,4.624,8.48,7.659,14.509,7.659c9.714,0,17.585-7.873,17.585-17.584
	c0-0.858-0.081-1.694-0.201-2.519c0.068,0,0.132,0.009,0.201,0.009c10.451,0,18.924-8.471,18.924-18.924
	C547.148,86.613,538.676,78.138,528.225,78.138z"/>
<path style="fill:#E4F2F2;" d="M543.337,410.594c-2.332,0-4.605,0.222-6.824,0.625c0.263-1.853,0.406-3.743,0.406-5.668
	c0-22.298-18.079-40.375-40.375-40.375c-19.008,0-34.942,13.143-39.228,30.833c-5.162-3.032-11.167-4.774-17.588-4.774
	c-14.019,0-26.093,8.297-31.599,20.246c-2.368-0.443-4.804-0.689-7.3-0.689c-21.695,0-39.283,17.588-39.283,39.283
	c0,21.695,17.588,39.283,39.283,39.283c7.455,0,14.43-2.077,20.367-5.686c0,0.153-0.01,0.302-0.01,0.455
	c0,20.809,16.87,37.676,37.679,37.676c13.895,0,26.03-7.529,32.561-18.727c3.653,1.979,7.84,3.103,12.292,3.103
	c13.16,0,24.021-9.841,25.638-22.564c4.328,1.721,9.039,2.677,13.98,2.677c20.905,0,37.849-16.944,37.849-37.849
	C581.186,427.54,564.242,410.594,543.337,410.594z"/>
<path style="fill:#E4F2F2;" d="M218.484,237.908c-3.003,0-5.905,0.454-8.633,1.297c0.017-0.43,0.031-0.863,0.031-1.297
	c0-16.788-13.607-30.394-30.395-30.394c-9.751,0-18.425,4.596-23.984,11.738c-4.762-4.436-11.144-7.151-18.162-7.151
	c-10.744,0-19.996,6.355-24.222,15.508c-2.893-1.121-6.038-1.745-9.329-1.745c-14.251,0-25.807,11.553-25.807,25.807
	c0,14.251,11.556,25.806,25.807,25.806c2.05,0,4.04-0.247,5.95-0.696c-0.129,1.12-0.202,2.256-0.202,3.412
	c0,16.307,13.219,29.528,29.525,29.528c8.976,0,17.008-4.009,22.425-10.329c4.72,7.139,12.816,11.85,22.015,11.85
	c11.173,0,20.716-6.949,24.561-16.758c3.239,1.234,6.75,1.917,10.419,1.917c16.154,0,29.248-13.095,29.248-29.246
	C247.732,251.001,234.639,237.908,218.484,237.908z M165,266.066c-0.412-0.757-0.861-1.493-1.338-2.207
	c0.756,0.461,1.534,0.885,2.332,1.281C165.655,265.441,165.324,265.75,165,266.066z"/>
<path style="fill:#E4F2F2;" d="M257.21,53.443c-4.103-11.705-16.843-19.702-31.295-18.638c-11.761,0.867-21.526,7.505-26.025,16.505
	c-4.311-4.802-11.16-7.659-18.645-7.105c-12.065,0.887-21.206,10.28-20.417,20.976c0.071,0.946,0.24,1.859,0.455,2.756
	c-0.085,0.004-0.166,0-0.252,0.007c-12.98,0.956-22.815,11.063-21.971,22.576c0.85,11.514,12.063,20.069,25.043,19.112
	c2.351-0.172,4.592-0.652,6.689-1.38c0.017,0.298,0.019,0.59,0.041,0.885c1.357,18.412,19.288,32.096,40.053,30.566
	c18.987-1.4,33.759-15.04,35.109-31.442c3.316,0.766,6.832,1.062,10.457,0.793c17.313-1.274,30.429-14.75,29.296-30.104
	C284.725,65.059,272.377,54.398,257.21,53.443z"/>
<path style="fill:#E4F2F2;" d="M140.408,434.724c-1.017,0.087-1.989,0.296-2.917,0.601c0.017-0.562,0.002-1.127-0.048-1.699
	c-0.693-8.076-7.805-14.059-15.879-13.361c-4.444,0.383-8.253,2.708-10.664,6.07c-2.642-3.335-6.85-5.322-11.406-4.93
	c-5.531,0.477-9.962,4.325-11.447,9.346c-1.656-0.473-3.423-0.661-5.241-0.504c-7.997,0.689-13.926,7.732-13.233,15.729
	c0.688,7.997,7.732,13.923,15.729,13.235c1.489-0.128,2.906-0.477,4.22-1.01c0.009,0.213,0.021,0.428,0.04,0.643
	c0.714,8.313,8.035,14.469,16.347,13.754c4.827-0.417,8.927-3.064,11.378-6.835c2.544,1.991,5.821,3.064,9.3,2.764
	c5.316-0.457,9.625-3.999,11.327-8.712c1.482,0.433,3.065,0.607,4.695,0.466c7.055-0.609,12.286-6.821,11.679-13.88
	C153.678,439.344,147.464,434.116,140.408,434.724z M110.133,443.487c0.153-0.163,0.307-0.332,0.451-0.501
	c0.236,0.355,0.492,0.703,0.756,1.036C110.947,443.825,110.544,443.647,110.133,443.487z"/>
<g>
	<g>
		<path style="fill:#F69D5E;" d="M392.39,177.828l-18.14,23.77c-4.675,5.99-26.676,16.35-17.228,25.373
			c11.488,10.963,25.542,11.436,29.986,6.624l31.778-35.188c4.783-5.795,11.495-16.808,1.523-26.322
			C408.816,161.132,396.818,173.007,392.39,177.828z"/>
		<path style="fill:#F69D5E;" d="M216.337,259.349c-0.684,38.149-3.813,122.292-3.813,122.292s-1.366,17.323,5.492,25.121
			c6.855,7.803,17.14,11.229,17.14,11.229l-17.167,35.665l103.576,21.914l51.439-73.354L238.968,276.933
			C238.968,276.933,242.673,257.389,216.337,259.349z"/>
		<g>
			<path style="fill:#221F1F;" d="M372.795,152.208H253.233c-8.101,0-14.674,6.568-14.674,14.675v228.626
				c0,8.109,6.573,14.675,14.674,14.675h119.561c8.108,0,14.675-6.566,14.675-14.675V166.883
				C387.47,158.776,380.903,152.208,372.795,152.208z"/>
			<rect x="247.732" y="184.634" style="fill:#1E75BA;" width="130.568" height="189.365"/>
			<path style="fill:#403F41;" d="M313.016,164.665c-3.025,0-5.481,2.457-5.481,5.48c0,3.029,2.456,5.485,5.481,5.485
				c3.029,0,5.483-2.456,5.483-5.485C318.498,167.122,316.045,164.665,313.016,164.665z"/>
			<path style="fill:#403F41;" d="M322.507,386.232h-18.985c-3.329,0-6.034,2.707-6.034,6.045c0,3.333,2.705,6.032,6.034,6.032
				h18.985c3.333,0,6.034-2.699,6.034-6.032C328.541,388.939,325.84,386.232,322.507,386.232z"/>
		</g>
		<path style="fill:#F69D5E;" d="M380.041,337.922l-5.795,7.31c-4.676,5.99-10.218,16.35-0.765,25.378
			c11.487,10.963,23.483-0.911,27.919-5.724l5.037-6.382c4.779-5.793,11.498-16.805,1.521-26.321
			C396.468,321.225,384.469,333.104,380.041,337.922z"/>
		<path style="fill:#F69D5E;" d="M380.041,290.859l-5.791,7.315c-4.68,5.985-10.22,16.344-0.768,25.374
			c11.487,10.963,23.483-0.912,27.922-5.723l5.038-6.382c4.78-5.795,11.494-16.807,1.521-26.322
			C396.468,274.167,384.473,286.046,380.041,290.859z"/>
		<path style="fill:#F69D5E;" d="M380.041,243.43l-5.791,7.306c-4.675,5.99-10.22,16.355-0.765,25.377
			c11.488,10.96,23.479-0.91,27.92-5.722l5.04-6.382c4.776-5.795,11.49-16.807,1.517-26.322
			C396.471,226.731,384.473,238.607,380.041,243.43z"/>
		
			<rect x="254.708" y="400.312" transform="matrix(0.4699 -0.8827 0.8827 0.4699 -264.9979 483.998)" style="fill:#E6E6E7;" width="31.513" height="124.634"/>
		
			<rect x="227.268" y="416.961" transform="matrix(0.4698 -0.8828 0.8828 0.4698 -266.5924 452.0225)" style="fill:#FFFFFF;" width="31.514" height="61.993"/>
		<polygon style="fill:#221F1F;" points="205.483,439.03 124.162,595.374 277.519,595.374 325.571,502.99 		"/>
		<path style="fill:#F0F1F1;" d="M300.727,510.734c-3.122-0.825-6.32,1.035-7.146,4.165c-0.817,3.118,1.039,6.319,4.166,7.143
			c3.121,0.82,6.317-1.039,7.143-4.162C305.707,514.755,303.852,511.56,300.727,510.734z"/>
		<path style="fill:#F0F1F1;" d="M291.311,528.404c-3.121-0.819-6.322,1.039-7.143,4.164c-0.824,3.119,1.038,6.32,4.158,7.149
			c3.121,0.819,6.324-1.045,7.151-4.162C296.3,532.425,294.436,529.224,291.311,528.404z"/>
		<path style="fill:#F0F1F1;" d="M281.902,546.078c-3.126-0.82-6.328,1.035-7.15,4.156c-0.823,3.127,1.034,6.323,4.157,7.147
			c3.119,0.82,6.326-1.039,7.148-4.162C286.881,550.099,285.019,546.893,281.902,546.078z"/>
		<polygon style="fill:#403F41;" points="205.483,439.03 124.163,595.374 200.838,595.374 265.516,471.021 		"/>
	</g>
</g>
<g>
	<g>
		<polygon style="fill:#F0F1F1;" points="277.793,233.069 277.793,327.527 348.406,327.527 348.406,248.578 332.896,233.069 		"/>
		<polygon style="fill:#D0D2D3;" points="332.896,248.578 348.406,248.578 332.896,233.069 		"/>
	</g>
	<rect x="289.03" y="259.733" style="fill:#929597;" width="49.195" height="4.281"/>
	<rect x="289.03" y="267.63" style="fill:#BBBDBF;" width="49.195" height="4.283"/>
	<rect x="289.03" y="275.53" style="fill:#BBBDBF;" width="49.195" height="4.281"/>
	<rect x="289.501" y="246.438" style="fill:#929597;" width="29.188" height="4.282"/>
	<rect x="289.03" y="283.428" style="fill:#BBBDBF;" width="49.195" height="4.282"/>
	<rect x="289.03" y="295.325" style="fill:#929597;" width="49.195" height="4.281"/>
	<rect x="289.03" y="303.221" style="fill:#BBBDBF;" width="49.195" height="4.284"/>
	<rect x="289.03" y="311.122" style="fill:#BBBDBF;" width="49.195" height="4.28"/>
	<g>
		<path style="fill:#F45D81;" d="M357.344,307.843c-0.746-0.748-1.955-0.748-2.703,0.001l-8.585,8.586
			c-0.745,0.745-0.745,1.957,0,2.702l6.677,6.678c0.749,0.748,1.958,0.748,2.706,0.001l8.586-8.585c0.746-0.747,0.746-1.958,0-2.706
			L357.344,307.843z"/>
		<polygon style="fill:#F7CF9C;" points="310.757,284.04 322.152,272.648 302.67,265.057 		"/>
		<polygon style="fill:#221F1F;" points="305.49,271.683 309.467,267.705 302.67,265.057 		"/>
		
			<rect x="326.076" y="271.021" transform="matrix(0.7071 -0.7071 0.7071 0.7071 -111.454 322.9741)" style="fill:#FFDC24;" width="16.114" height="50.002"/>
		
			<rect x="345.223" y="313.093" transform="matrix(0.7072 -0.707 0.707 0.7072 -119.3892 342.045)" style="fill:#F0F1F1;" width="16.114" height="4.152"/>
		
			<rect x="327.246" y="273.843" transform="matrix(0.7071 -0.7071 0.7071 0.7071 -114.2769 321.8049)" style="fill:#E8BF15;" width="8.13" height="50.005"/>
	</g>
</g>
</svg>
