<svg xmlns="http://www.w3.org/2000/svg" xmlns:xlink="http://www.w3.org/1999/xlink" width="500" zoomAndPan="magnify" viewBox="0 0 375 374.999991" height="500" preserveAspectRatio="xMidYMid meet" version="1.2"><defs><clipPath id="2f538cd018"><path d="M 147.691406 101.375 L 227.097656 101.375 L 227.097656 221 L 147.691406 221 Z M 147.691406 101.375 "/></clipPath></defs><g id="eceaae35a5"><path style=" stroke:none;fill-rule:nonzero;fill:#339deb;fill-opacity:1;" d="M 193.164062 136.480469 L 193.164062 176.992188 L 181.242188 176.992188 L 181.242188 136.480469 C 181.242188 133.1875 183.910156 130.519531 187.203125 130.519531 C 190.496094 130.519531 193.164062 133.1875 193.164062 136.480469 Z M 203.644531 145.226562 C 200.351562 145.226562 197.679688 147.898438 197.679688 151.191406 L 197.679688 176.996094 L 209.605469 176.996094 L 209.605469 151.191406 C 209.605469 147.894531 206.9375 145.226562 203.644531 145.226562 Z M 170.652344 145.226562 C 167.359375 145.226562 164.6875 147.898438 164.6875 151.191406 L 164.6875 176.996094 L 176.613281 176.996094 L 176.613281 151.191406 C 176.613281 147.894531 173.945312 145.226562 170.652344 145.226562 Z M 170.652344 145.226562 "/><g clip-rule="nonzero" clip-path="url(#2f538cd018)"><path style=" stroke:none;fill-rule:nonzero;fill:#263b9d;fill-opacity:1;" d="M 187.347656 101.503906 C 165.394531 101.503906 147.597656 119.300781 147.597656 141.253906 L 147.597656 181.003906 C 147.597656 202.957031 165.394531 220.753906 187.347656 220.753906 C 209.300781 220.753906 227.097656 202.957031 227.097656 181.003906 L 227.097656 141.253906 C 227.097656 119.300781 209.300781 101.503906 187.347656 101.503906 Z M 215.171875 180.96875 L 159.523438 180.96875 L 159.523438 141.253906 C 159.523438 137.492188 160.257812 133.847656 161.703125 130.425781 C 163.101562 127.113281 165.109375 124.136719 167.671875 121.578125 C 170.230469 119.019531 173.207031 117.011719 176.519531 115.609375 C 179.941406 114.164062 183.582031 113.429688 187.34375 113.429688 C 191.105469 113.429688 194.75 114.164062 198.171875 115.609375 C 201.484375 117.011719 204.460938 119.019531 207.019531 121.578125 C 209.578125 124.136719 211.585938 127.117188 212.984375 130.425781 C 214.433594 133.847656 215.167969 137.492188 215.167969 141.253906 L 215.167969 180.96875 Z M 215.171875 180.96875 "/></g><g style="fill:#000000;fill-opacity:1;"><g transform="translate(142.599011, 253.275569)"><path style="stroke:none" d="M 11.15625 -7.40625 L 16.203125 0 L 11.765625 0 L 7.3125 -6.953125 L 5.734375 -6.953125 L 5.734375 0 L 1.765625 0 L 1.765625 -18 L 9.421875 -18 C 10.460938 -18 11.378906 -17.753906 12.171875 -17.265625 C 12.972656 -16.773438 13.609375 -16.109375 14.078125 -15.265625 C 14.554688 -14.429688 14.796875 -13.503906 14.796875 -12.484375 C 14.796875 -11.265625 14.453125 -10.191406 13.765625 -9.265625 C 13.085938 -8.347656 12.21875 -7.726562 11.15625 -7.40625 Z M 8.8125 -10.234375 C 9.457031 -10.234375 9.984375 -10.429688 10.390625 -10.828125 C 10.804688 -11.234375 11.015625 -11.742188 11.015625 -12.359375 C 11.015625 -12.984375 10.804688 -13.492188 10.390625 -13.890625 C 9.984375 -14.285156 9.457031 -14.484375 8.8125 -14.484375 L 5.734375 -14.484375 L 5.734375 -10.234375 Z M 8.8125 -10.234375 "/></g></g><g style="fill:#000000;fill-opacity:1;"><g transform="translate(158.168994, 253.275569)"><path style="stroke:none" d="M 14.578125 -12 L 9.515625 -5.96875 L 14.578125 0 L 9.984375 0 L 7.234375 -3.265625 L 4.46875 0 L -0.15625 0 L 4.921875 -6 L -0.15625 -12 L 4.40625 -12 L 7.203125 -8.703125 L 9.984375 -12 Z M 14.578125 -12 "/></g></g><g style="fill:#000000;fill-opacity:1;"><g transform="translate(172.118975, 253.275569)"><path style="stroke:none" d="M 17.453125 -18 L 21.71875 -18 L 21.71875 0 L 17.765625 0 L 17.765625 -10.703125 L 12.875 0 L 10.59375 0 L 5.734375 -10.734375 L 5.734375 0 L 1.765625 0 L 1.765625 -18 L 6.0625 -18 L 11.734375 -5.546875 Z M 17.453125 -18 "/></g></g><g style="fill:#000000;fill-opacity:1;"><g transform="translate(195.128957, 253.275569)"><path style="stroke:none" d="M 3.75 -14.015625 C 3.1875 -14.015625 2.695312 -14.222656 2.28125 -14.640625 C 1.863281 -15.054688 1.65625 -15.546875 1.65625 -16.109375 C 1.65625 -16.691406 1.863281 -17.1875 2.28125 -17.59375 C 2.695312 -18 3.1875 -18.203125 3.75 -18.203125 C 4.332031 -18.203125 4.828125 -18 5.234375 -17.59375 C 5.640625 -17.1875 5.84375 -16.691406 5.84375 -16.109375 C 5.84375 -15.546875 5.640625 -15.054688 5.234375 -14.640625 C 4.828125 -14.222656 4.332031 -14.015625 3.75 -14.015625 Z M 1.828125 0 L 1.828125 -12 L 5.640625 -12 L 5.640625 0 Z M 1.828125 0 "/></g></g><g style="fill:#000000;fill-opacity:1;"><g transform="translate(202.148945, 253.275569)"><path style="stroke:none" d="M 9.03125 -12.234375 C 9.832031 -12.234375 10.550781 -12.03125 11.1875 -11.625 C 11.832031 -11.21875 12.347656 -10.660156 12.734375 -9.953125 C 13.117188 -9.253906 13.3125 -8.46875 13.3125 -7.59375 L 13.3125 0 L 9.515625 0 L 9.515625 -6.953125 C 9.515625 -7.492188 9.335938 -7.941406 8.984375 -8.296875 C 8.628906 -8.660156 8.175781 -8.84375 7.625 -8.84375 C 7.0625 -8.84375 6.582031 -8.660156 6.1875 -8.296875 C 5.800781 -7.941406 5.609375 -7.492188 5.609375 -6.953125 L 5.609375 0 L 1.765625 0 L 1.765625 -12 L 5.609375 -12 L 5.609375 -10.53125 C 6.023438 -11.050781 6.53125 -11.460938 7.125 -11.765625 C 7.71875 -12.078125 8.351562 -12.234375 9.03125 -12.234375 Z M 9.03125 -12.234375 "/></g></g><g style="fill:#000000;fill-opacity:1;"><g transform="translate(216.518935, 253.275569)"><path style="stroke:none" d="M 10.296875 -20.546875 L 14.09375 -20.546875 L 14.09375 0 L 10.296875 0.03125 L 10.296875 -1.046875 C 9.847656 -0.648438 9.335938 -0.335938 8.765625 -0.109375 C 8.203125 0.117188 7.570312 0.234375 6.875 0.234375 C 5.769531 0.234375 4.765625 -0.0390625 3.859375 -0.59375 C 2.960938 -1.15625 2.25 -1.90625 1.71875 -2.84375 C 1.195312 -3.789062 0.9375 -4.84375 0.9375 -6 C 0.9375 -7.15625 1.195312 -8.203125 1.71875 -9.140625 C 2.25 -10.085938 2.960938 -10.835938 3.859375 -11.390625 C 4.765625 -11.953125 5.769531 -12.234375 6.875 -12.234375 C 7.570312 -12.234375 8.203125 -12.117188 8.765625 -11.890625 C 9.335938 -11.660156 9.847656 -11.347656 10.296875 -10.953125 Z M 7.625 -3.15625 C 8.40625 -3.15625 9.070312 -3.425781 9.625 -3.96875 C 10.1875 -4.519531 10.46875 -5.195312 10.46875 -6 C 10.46875 -6.800781 10.1875 -7.472656 9.625 -8.015625 C 9.070312 -8.566406 8.40625 -8.84375 7.625 -8.84375 C 6.820312 -8.84375 6.144531 -8.566406 5.59375 -8.015625 C 5.039062 -7.472656 4.765625 -6.800781 4.765625 -6 C 4.765625 -5.195312 5.039062 -4.519531 5.59375 -3.96875 C 6.144531 -3.425781 6.820312 -3.15625 7.625 -3.15625 Z M 7.625 -3.15625 "/></g></g></g></svg>